<?xml version="1.0" encoding="UTF-8"?>
<!-- OK Player chrome icon. Original work, GPL-3.0-or-later.
     Generated by scripts/generate-chrome-icons.py - edit that, not this. -->
<svg xmlns="http://www.w3.org/2000/svg" width="16" height="16" viewBox="0 0 16 16">
  <g fill="#222222">
    <path d="M 7.021 13.221 A 3 3 0 0 1 2.779 8.979 L 4.122 10.322 A 1.1 1.1 0 0 0 5.678 11.878 Z"/><path d="M 8.979 2.779 A 3 3 0 0 1 13.221 7.021 L 11.878 5.678 A 1.1 1.1 0 0 0 10.322 4.122 Z"/><path d="M 7.693 13.893 L 10.168 11.418 L 8.824 10.075 L 6.35 12.55 Z"/><path d="M 12.55 6.35 L 10.075 8.824 L 11.418 10.168 L 13.893 7.693 Z"/><path d="M 3.45 9.65 L 5.925 7.176 L 4.582 5.832 L 2.107 8.307 Z"/><path d="M 8.307 2.107 L 5.832 4.582 L 7.176 5.925 L 9.65 3.45 Z"/>
  </g>
</svg>
